<svg xmlns="http://www.w3.org/2000/svg" xmlns:xlink="http://www.w3.org/1999/xlink" width="100.0" height="100.0" viewBox="127.00921589999524 37.569412492078044 0.00997196869718664 0.007767296492353637" preserveAspectRatio="xMinYMin meet"><g transform="matrix(1,0,0,-1,0,75.14659228064843)"><path fill-rule="evenodd" fill="#66cc99" stroke="#555555" stroke-width="0.0001994393739437328" opacity="0.6" d="M 127.01572604080032,37.572983762654744 L 127.01881853651845,37.570984519777085 L 127.0175133756155,37.57029101296999 L 127.0172783400352,37.5702024312381 L 127.0171373467301,37.570149540415414 L 127.01700034533405,37.5701027859073 L 127.01686968618156,37.57005943724952 L 127.01674098681009,37.57001950356381 L 127.01664154663442,37.56998864893561 L 127.0163801750635,37.56991209062485 L 127.0161766627633,37.56986280930545 L 127.01600564056696,37.56982380100295 L 127.0158654089304,37.56981531307181 L 127.0157629720032,37.56980928655595 L 127.01566542077587,37.56980859794676 L 127.01537585828629,37.56980657136566 L 127.01161575947448,37.56978206242719 L 127.01128595164396,37.56978182425201 L 127.01010401194387,37.569782558827946 L 127.00958523216921,37.569783784930834 L 127.01016044839562,37.57156810157083 L 127.01196088087447,37.57263839098752 L 127.01260655758911,37.574677091344356 L 127.01264929372097,37.57538134668361 L 127.01547769446634,37.57681045639643 L 127.01566947011413,37.575578047001116 L 127.01572604080032,37.572983762654744 z" /></g></svg>