<svg xmlns="http://www.w3.org/2000/svg" xmlns:xlink="http://www.w3.org/1999/xlink" width="100.0" height="100.0" viewBox="126.96224144693643 37.56762545417213 0.015362015477265345 0.01254504648855459" preserveAspectRatio="xMinYMin meet"><g transform="matrix(1,0,0,-1,0,75.14779595483282)"><path fill-rule="evenodd" fill="#66cc99" stroke="#555555" stroke-width="0.0003072403095453069" opacity="0.6" d="M 126.97688884274817,37.575650779448786 L 126.9770344988775,37.569194530054546 L 126.97597472821249,37.569336299425764 L 126.97537470991254,37.56931556702156 L 126.97433193562325,37.56926180051753 L 126.96904837001854,37.56819441770833 L 126.96854493603384,37.56842767961276 L 126.9666499598212,37.569491655206576 L 126.96628175024485,37.5697007347987 L 126.9660973270804,37.5698565097237 L 126.96572852922577,37.570183936115114 L 126.96592699822128,37.5703188056862 L 126.96601094018429,37.57154839557748 L 126.96365922052196,37.575174660660366 L 126.9630860043451,37.57648592001554 L 126.96284099051198,37.57666158609274 L 126.96281041047263,37.57944880965677 L 126.96742431584332,37.57960153712449 L 126.96742176302651,37.579263521441646 L 126.9674300601846,37.57919257799861 L 126.9674570900956,37.578975250585444 L 126.96806604699626,37.57824678046787 L 126.96895511695477,37.57793526234029 L 126.96921284296906,37.57793529930939 L 126.96941453886579,37.57812112414218 L 126.9696644266947,37.57853113668221 L 126.96966721914872,37.57873620513492 L 126.96966877353309,37.57899287900988 L 126.96966949910363,37.5791125267496 L 126.96990457361626,37.57930175362873 L 126.97135197544759,37.57951327793981 L 126.97381925784454,37.57937214030263 L 126.97391736338342,37.57848707304101 L 126.97393961998088,37.57824042997809 L 126.97433153835757,37.57574990629986 L 126.97580378997804,37.5756494688242 L 126.97688884274817,37.575650779448786 z" /></g></svg>